<?xml version="1.0" standalone="no"?>
<!DOCTYPE svg PUBLIC "-//W3C//DTD SVG 20010904//EN"
 "http://www.w3.org/TR/2001/REC-SVG-20010904/DTD/svg10.dtd">
<svg version="1.0" xmlns="http://www.w3.org/2000/svg"
 width="192.000000pt" height="192.000000pt" viewBox="0 0 192.000000 192.000000"
 preserveAspectRatio="xMidYMid meet">

<g transform="translate(0.000000,192.000000) scale(0.100000,-0.100000)"
fill="#000000" stroke="none">
<path d="M1255 1541 c-126 -33 -197 -121 -198 -246 0 -60 4 -80 29 -125 36
-68 97 -115 168 -131 52 -11 55 -14 58 -44 l3 -33 60 19 c72 22 137 74 167
133 15 30 22 66 26 132 5 101 -9 149 -63 212 -53 63 -173 103 -250 83z m137
-178 c38 -37 68 -72 68 -79 0 -6 -31 -41 -69 -77 -47 -46 -74 -65 -85 -61 -26
10 -19 35 21 76 l37 38 -95 0 c-102 0 -126 9 -108 42 8 15 22 18 101 18 l92 0
-32 33 c-31 32 -40 56 -25 70 14 15 30 5 95 -60z"/>
<path d="M307 922 c-3 -4 -20 -6 -39 -6 -58 2 -58 1 -58 -225 0 -248 9 -289
76 -361 25 -27 68 -58 97 -71 l52 -24 525 0 525 0 52 24 c71 32 137 104 157
172 19 64 24 439 5 439 -5 0 -7 5 -3 11 4 6 -1 9 -12 8 -11 -2 -25 0 -31 4 -7
5 -13 4 -13 -2 0 -10 -19 -9 -37 2 -9 6 -13 2 -13 -10 0 -15 -2 -15 -9 -3 -6
8 -7 18 -4 24 3 5 2 7 -3 3 -5 -3 -30 -8 -54 -12 -25 -4 -48 -12 -52 -18 -6
-9 -8 -9 -8 -1 0 7 -7 15 -16 18 -8 3 -12 2 -9 -4 3 -6 2 -10 -4 -10 -5 0 -11
5 -13 11 -3 9 -10 9 -27 -1 -15 -7 -21 -8 -17 -1 5 7 -4 11 -23 11 -29 0 -30
-2 -21 -26 17 -44 32 -68 72 -113 44 -51 49 -87 15 -119 -23 -22 -25 -22 -458
-22 l-436 0 -21 23 c-33 35 -28 69 18 122 44 51 58 74 63 102 1 10 6 23 10 30
5 8 0 10 -20 7 -14 -3 -30 -7 -35 -10 -5 -3 -14 -1 -21 4 -16 12 -68 22 -61
11 3 -5 -1 -9 -10 -9 -8 0 -17 6 -19 13 -4 8 -6 6 -6 -4 -1 -15 -31 -24 -31
-9 0 4 -7 7 -15 7 -8 0 -15 -5 -15 -11 0 -6 -4 -5 -9 3 -5 8 -16 11 -24 8 -11
-4 -14 -1 -10 9 5 14 -2 20 -10 6z m809 -374 c-26 -135 -214 -166 -293 -48
-13 18 -23 44 -23 56 l0 24 161 0 162 0 -7 -32z"/>
</g>
</svg>
