<?xml version="1.0" standalone="no"?>
<!DOCTYPE svg PUBLIC "-//W3C//DTD SVG 20010904//EN"
 "http://www.w3.org/TR/2001/REC-SVG-20010904/DTD/svg10.dtd">
<svg version="1.0" xmlns="http://www.w3.org/2000/svg"
 width="512.000000pt" height="512.000000pt" viewBox="0 0 512.000000 512.000000"
 preserveAspectRatio="xMidYMid meet">

<g transform="translate(0.000000,512.000000) scale(0.100000,-0.100000)"
fill="#000000" stroke="none">
<path d="M3340 4104 c-95 -20 -234 -92 -309 -161 -70 -63 -149 -174 -177 -251
-10 -26 -20 -49 -23 -52 -11 -9 -16 -85 -15 -220 0 -114 4 -145 23 -200 51
-147 177 -305 303 -378 76 -45 189 -82 270 -89 l66 -6 8 -106 c4 -64 10 -98
14 -86 4 11 6 23 4 27 -3 4 0 9 6 13 5 3 10 1 10 -5 0 -7 6 -8 19 0 14 7 22 7
27 -1 5 -8 12 -6 22 7 10 13 16 15 19 7 3 -7 9 -13 15 -13 6 0 7 8 4 17 -6 15
-4 15 14 -2 18 -17 20 -17 20 -1 0 9 4 15 9 11 5 -3 12 -1 16 5 4 6 11 8 16 5
5 -4 16 1 25 9 8 9 21 16 27 16 7 0 6 -4 -3 -10 -10 -7 -11 -10 -2 -10 7 0 15
7 18 15 5 12 10 13 20 4 11 -9 15 -7 20 5 4 10 13 15 20 12 9 -3 11 0 7 11 -4
11 -3 14 6 9 7 -5 21 2 36 18 15 17 25 21 28 13 3 -7 6 -4 6 5 1 10 6 17 12
15 6 -1 14 4 17 12 3 9 0 11 -9 6 -8 -5 -11 -4 -6 1 5 5 12 9 15 9 16 1 52 31
52 43 0 7 5 10 10 7 6 -3 10 -2 10 4 0 6 8 18 18 28 36 36 83 103 87 124 3 13
10 26 17 30 7 4 9 11 6 15 -4 4 -2 16 4 28 14 24 18 38 25 84 3 17 8 32 12 32
10 0 8 96 -1 106 -11 10 -10 26 1 20 15 -10 4 254 -14 319 -82 307 -360 517
-678 514 -45 0 -111 -7 -147 -15z m384 -484 c156 -156 168 -171 162 -197 -9
-36 -329 -359 -365 -368 -36 -9 -75 23 -79 65 -3 30 5 42 100 137 l103 103
-257 0 c-234 0 -258 2 -279 18 -33 27 -30 78 5 109 27 23 30 23 273 23 l247 0
-97 99 c-79 80 -97 104 -97 128 0 47 44 77 91 61 14 -5 101 -85 193 -178z"/>
<path d="M2499 3733 c-13 -16 -12 -17 4 -4 9 7 17 15 17 17 0 8 -8 3 -21 -13z"/>
<path d="M2332 3683 c-1 -23 -8 -44 -14 -46 -10 -4 -10 -6 0 -6 17 -1 24 20
19 61 -3 30 -4 30 -5 -9z"/>
<path d="M542 3645 c0 -16 2 -22 5 -12 2 9 2 23 0 30 -3 6 -5 -1 -5 -18z"/>
<path d="M2488 3663 c6 -2 18 -2 25 0 6 3 1 5 -13 5 -14 0 -19 -2 -12 -5z"/>
<path d="M2618 3663 c7 -3 16 -2 19 1 4 3 -2 6 -13 5 -11 0 -14 -3 -6 -6z"/>
<path d="M4572 3630 c0 -14 2 -19 5 -12 2 6 2 18 0 25 -3 6 -5 1 -5 -13z"/>
<path d="M1652 2950 c0 -14 2 -19 5 -12 2 6 2 18 0 25 -3 6 -5 1 -5 -13z"/>
<path d="M1642 2885 c0 -16 2 -22 5 -12 2 9 2 23 0 30 -3 6 -5 -1 -5 -18z"/>
<path d="M1633 2780 c0 -25 2 -35 4 -22 2 12 2 32 0 45 -2 12 -4 2 -4 -23z"/>
<path d="M1623 2630 c0 -25 2 -35 4 -22 2 12 2 32 0 45 -2 12 -4 2 -4 -23z"/>
<path d="M3756 2553 c-6 -14 -5 -15 5 -6 7 7 10 15 7 18 -3 3 -9 -2 -12 -12z"/>
<path d="M1612 2530 c0 -19 2 -27 5 -17 2 9 2 25 0 35 -3 9 -5 1 -5 -18z"/>
<path d="M670 2521 c0 -9 30 -24 36 -18 2 1 -6 8 -16 15 -11 7 -20 8 -20 3z"/>
<path d="M1060 2520 c-9 -6 -10 -10 -3 -10 6 0 15 5 18 10 8 12 4 12 -15 0z"/>
<path d="M4090 2519 c0 -5 5 -7 10 -4 6 3 10 8 10 11 0 2 -4 4 -10 4 -5 0 -10
-5 -10 -11z"/>
<path d="M640 2500 c-6 -11 -8 -20 -6 -20 3 0 10 9 16 20 6 11 8 20 6 20 -3 0
-10 -9 -16 -20z"/>
<path d="M1144 2505 c3 -23 12 -26 13 -5 1 11 -2 20 -7 20 -4 0 -7 -7 -6 -15z"/>
<path d="M3790 2510 c-9 -6 -10 -10 -3 -10 6 0 15 5 18 10 8 12 4 12 -15 0z"/>
<path d="M3501 2484 c0 -16 3 -23 6 -15 4 11 7 11 14 0 4 -7 10 -11 13 -9 2 3
-4 16 -15 29 l-19 23 1 -28z"/>
<path d="M3973 2503 c4 -6 1 -16 -7 -22 -20 -17 -9 -50 15 -44 10 3 19 9 19
14 0 5 -7 6 -15 3 -18 -7 -20 17 -4 33 8 8 7 13 -2 18 -7 5 -10 4 -6 -2z"/>
<path d="M4275 2500 c-3 -6 1 -7 9 -4 18 7 21 14 7 14 -6 0 -13 -4 -16 -10z"/>
<path d="M679 2478 c4 -12 14 -24 20 -26 8 -3 7 5 -4 22 -21 32 -27 33 -16 4z"/>
<path d="M848 2493 c7 -3 16 -2 19 1 4 3 -2 6 -13 5 -11 0 -14 -3 -6 -6z"/>
<path d="M1013 2480 c-11 -16 -10 -18 2 -14 8 4 15 12 15 20 0 19 -3 18 -17
-6z"/>
<path d="M1387 2493 c-10 -9 -9 -23 1 -23 5 0 9 7 9 15 0 17 -1 18 -10 8z"/>
<path d="M4240 2491 c0 -6 4 -13 10 -16 6 -3 7 1 4 9 -7 18 -14 21 -14 7z"/>
<path d="M587 2483 c-10 -9 -9 -23 1 -23 5 0 9 7 9 15 0 17 -1 18 -10 8z"/>
<path d="M1070 2475 c-7 -8 -15 -13 -19 -11 -4 3 -13 1 -21 -5 -12 -7 -11 -9
6 -9 11 0 29 9 39 20 10 11 16 20 13 20 -3 0 -11 -7 -18 -15z"/>
<path d="M4166 2475 c-3 -8 -1 -15 4 -15 6 0 10 7 10 15 0 8 -2 15 -4 15 -2 0
-6 -7 -10 -15z"/>
<path d="M4323 2470 c-1 -11 2 -20 7 -20 4 0 7 7 6 15 -3 23 -12 26 -13 5z"/>
<path d="M4364 2482 c3 -5 0 -13 -6 -15 -8 -3 -6 -6 5 -6 19 -1 23 14 5 25 -6
4 -8 3 -4 -4z"/>
<path d="M4436 2473 c-6 -14 -5 -15 5 -6 7 7 10 15 7 18 -3 3 -9 -2 -12 -12z"/>
<path d="M715 2469 c7 -11 35 -12 35 -1 0 4 -9 8 -20 9 -11 1 -18 -2 -15 -8z"/>
<path d="M796 2464 c-5 -12 -10 -14 -20 -5 -13 11 -26 5 -26 -11 0 -5 10 -7
23 -4 18 3 22 -1 23 -23 1 -14 -1 -20 -3 -13 -3 6 -9 12 -14 12 -6 0 -8 -4 -5
-8 3 -5 -1 -9 -9 -9 -10 0 -12 4 -5 12 14 17 -36 43 -52 27 -8 -8 -8 -15 0
-25 9 -11 8 -14 -3 -14 -8 0 -12 4 -9 9 3 4 1 8 -5 8 -6 0 -8 6 -5 14 6 16
-33 29 -43 14 -4 -7 -12 -4 -21 8 -9 12 -12 13 -9 4 7 -22 -11 -50 -32 -50
-25 0 -33 -11 -20 -27 6 -7 7 -13 2 -13 -13 0 -12 -33 1 -42 8 -5 7 -8 -1 -8
-7 0 -12 -10 -12 -22 0 -13 -3 -208 -7 -435 -7 -433 -2 -530 36 -679 37 -144
134 -297 245 -387 79 -64 220 -132 327 -157 47 -11 142 -25 210 -30 170 -13
2215 -13 2391 1 78 5 179 20 231 34 274 69 459 241 544 505 43 132 47 185 46
605 -1 415 -2 445 -19 457 -7 5 -6 8 0 8 7 0 11 37 10 97 0 80 -3 98 -15 99
-17 0 -70 -24 -70 -32 0 -2 9 0 21 6 38 21 59 20 59 -1 0 -17 -3 -18 -21 -8
-17 8 -20 8 -14 -1 5 -9 1 -10 -15 -5 -17 6 -21 4 -14 -6 6 -11 5 -12 -8 -2
-8 7 -19 9 -23 5 -5 -4 -5 -2 -2 4 4 7 0 15 -9 18 -8 3 -12 2 -9 -4 3 -5 -6
-12 -20 -16 -27 -7 -33 -20 -12 -27 6 -2 17 3 23 11 9 13 12 13 17 -2 4 -9 3
-14 -2 -11 -5 3 -12 1 -16 -5 -4 -6 -10 -8 -14 -6 -4 3 -20 7 -36 10 -16 3
-31 9 -34 13 -9 12 -31 14 -31 3 0 -6 -5 -10 -11 -10 -6 0 -9 7 -5 15 3 8 1
15 -4 15 -6 0 -10 -4 -10 -9 0 -5 -10 -7 -22 -3 -16 4 -19 2 -13 -8 5 -8 4
-11 -3 -6 -16 9 -3 36 14 29 17 -6 30 25 16 39 -7 7 -10 5 -9 -7 2 -14 -6 -18
-31 -20 -24 -1 -31 2 -30 14 2 10 -4 16 -14 16 -10 0 -18 -4 -17 -9 1 -16 -24
-25 -42 -15 -25 13 -29 11 -22 -8 5 -15 3 -16 -7 -6 -18 16 6 49 25 33 8 -7
12 -5 12 5 0 8 -3 13 -5 10 -3 -3 -11 0 -19 7 -11 9 -13 8 -11 -3 2 -8 -3 -13
-9 -12 -7 2 -13 -6 -13 -17 0 -11 -5 -20 -11 -20 -5 0 -7 5 -4 10 3 6 1 10 -5
10 -6 0 -8 5 -5 10 3 6 2 10 -4 10 -6 0 -17 12 -24 26 -12 22 -15 24 -20 10
-4 -9 -3 -15 1 -12 13 8 29 -40 21 -62 -8 -22 -39 -31 -39 -11 0 5 -5 7 -10 4
-8 -5 -7 -12 1 -23 11 -14 10 -14 -6 0 -15 14 -16 21 -7 30 21 21 14 37 -15
35 -19 -1 -27 2 -25 11 1 8 -2 11 -7 8 -11 -7 -9 -25 3 -45 7 -11 5 -13 -5 -9
-11 4 -14 -1 -13 -23 1 -16 -2 -29 -7 -29 -4 0 -6 -8 -2 -17 3 -11 -2 -7 -13
7 -24 33 -26 48 -6 60 10 5 12 10 6 10 -5 0 -15 -5 -21 -11 -7 -7 -19 -8 -30
-4 -10 5 -21 9 -25 10 -5 2 -11 4 -15 5 -5 1 -19 1 -33 0 -21 -2 -23 0 -10 15
7 9 9 15 4 13 -5 -2 -9 2 -9 7 0 6 3 9 8 7 20 -6 3 9 -25 23 -21 10 -27 11
-16 3 12 -10 14 -18 6 -31 -6 -12 -6 -17 3 -15 6 2 12 -7 14 -19 1 -13 -2 -23
-7 -23 -5 0 -6 -4 -3 -10 4 -6 -1 -7 -10 -3 -10 3 -21 0 -26 -8 -7 -11 -9 -11
-9 4 0 9 5 17 11 17 5 0 7 5 4 10 -3 6 -11 10 -16 10 -6 0 -7 -4 -4 -10 9 -15
-4 -12 -21 4 -8 8 -23 13 -34 11 -11 -2 -18 0 -15 5 3 5 1 11 -5 15 -8 5 -14
-13 -12 -36 1 -3 -5 -6 -13 -6 -7 0 -11 6 -8 14 4 10 0 11 -20 4 -14 -5 -28
-7 -31 -4 -3 4 -6 -1 -6 -11 0 -9 4 -15 9 -12 5 3 21 0 35 -8 21 -10 23 -15
11 -19 -8 -4 -15 -2 -15 3 0 6 -7 10 -15 10 -8 0 -15 -7 -15 -16 0 -8 4 -13 9
-10 5 4 7 -4 3 -16 -3 -13 -1 -19 5 -15 7 5 9 -1 5 -15 -3 -14 -1 -19 6 -14 8
4 10 2 6 -7 -3 -8 2 -22 11 -30 9 -9 15 -18 14 -19 -6 -9 14 -47 22 -42 5 3 9
2 8 -3 -4 -23 8 -40 87 -123 47 -50 94 -109 104 -133 38 -83 19 -163 -53 -221
l-39 -31 -1153 -3 -1153 -2 -43 32 c-52 41 -79 90 -79 146 0 65 22 105 104
191 78 82 139 168 130 182 -3 5 0 9 6 9 6 0 8 5 5 10 -3 6 -1 10 5 10 6 0 8 5
5 10 -3 6 -1 10 5 10 7 0 9 7 6 16 -3 8 -2 13 3 10 11 -7 25 45 14 53 -4 3 -9
15 -11 26 l-3 20 17 -20 17 -20 -8 20 c-4 11 -8 25 -8 32 0 7 -5 11 -11 10 -6
-1 -10 11 -9 28 2 21 0 26 -7 15 -5 -8 -6 -18 -3 -23 3 -4 -5 -11 -17 -14 -11
-3 -19 -11 -17 -18 3 -6 -1 -12 -9 -12 -8 0 -13 6 -10 14 8 20 -3 16 -32 -15
-15 -15 -26 -25 -25 -23 2 2 -5 10 -15 17 -15 12 -15 13 4 8 12 -3 25 0 29 7
6 9 2 11 -13 7 -14 -4 -22 -2 -22 7 0 14 31 15 41 2 3 -5 9 -1 13 8 5 14 2 16
-19 11 -18 -5 -25 -2 -25 9 0 8 -5 15 -11 15 -5 0 -8 -4 -5 -9 4 -5 1 -22 -4
-37 -8 -21 -7 -33 5 -53 16 -26 16 -26 -7 2 -20 22 -26 25 -38 15 -8 -7 -6 -3
4 10 17 20 15 27 -7 23 -4 -1 -5 10 -1 24 5 21 3 24 -10 19 -10 -4 -15 -12
-12 -20 3 -8 -2 -12 -14 -11 -10 1 -16 5 -13 11 4 5 -1 7 -10 3 -10 -4 -17 -2
-17 4 0 6 -7 8 -16 5 -9 -4 -13 -2 -8 5 4 7 1 10 -7 7 -8 -3 -13 -11 -11 -17
1 -6 -3 -11 -9 -11 -6 0 -8 -7 -4 -17 5 -15 4 -16 -6 -5 -15 14 -49 16 -49 4
0 -5 -7 -9 -16 -9 -10 0 -14 7 -11 18 5 19 -15 44 -26 32 -13 -13 -7 -25 11
-19 16 6 16 5 0 -7 -10 -8 -15 -17 -11 -20 3 -4 1 -7 -6 -7 -7 0 -10 -4 -7 -9
3 -4 -14 -8 -37 -8 -45 -1 -69 -5 -77 -13 -3 -3 -21 0 -40 7 -19 6 -28 12 -20
13 13 0 13 1 0 10 -13 9 -13 10 0 10 13 0 13 1 0 10 -10 6 -11 10 -2 10 15 0
12 19 -6 39 -11 11 -16 11 -25 1 -9 -10 -9 -11 0 -6 18 10 25 -10 8 -24 -17
-14 -21 -35 -5 -25 6 3 10 1 10 -5 0 -7 -6 -10 -12 -7 -7 2 -12 14 -11 26 3
23 -12 29 -21 9 -3 -7 -5 -2 -5 12 2 40 0 43 -16 30 -10 -9 -15 -9 -15 -1 0 6
-4 11 -9 11 -5 0 -7 -10 -4 -21 4 -16 2 -20 -8 -17 -8 3 -13 12 -11 22 4 21
-4 21 -12 0z m-139 -26 c-2 -7 3 -18 11 -24 13 -9 12 -11 -2 -11 -9 0 -16 4
-16 9 0 5 -5 6 -11 3 -6 -4 -5 2 3 14 14 23 22 28 15 9z m203 -5 c-1 -17 -22
-53 -31 -53 -2 0 -5 11 -5 25 -1 16 3 25 13 25 8 0 11 5 8 10 -3 6 -1 10 4 10
6 0 11 -8 11 -17z m459 -67 c0 -6 -3 -5 -6 2 -2 6 -10 9 -16 5 -7 -3 -9 -2 -4
2 4 5 -1 18 -10 29 -13 15 -10 14 10 -3 15 -14 27 -29 26 -35z m2644 14 c-3
-11 -10 -17 -16 -13 -6 4 -8 0 -4 -10 3 -9 -1 -21 -11 -28 -14 -11 -15 -11 -5
0 6 7 9 20 6 28 -3 8 0 19 7 23 11 7 11 12 -1 26 -13 16 -12 16 8 6 14 -8 20
-18 16 -32z m242 20 c-1 -22 -15 -41 -15 -21 0 7 -5 9 -12 5 -7 -4 -4 2 6 14
23 27 23 27 21 2z m-2655 0 c0 -5 -5 -10 -11 -10 -5 0 -7 5 -4 10 3 6 8 10 11
10 2 0 4 -4 4 -10z m-965 -11 c-4 -6 -1 -10 6 -8 8 1 21 1 29 0 13 -1 13 -2 0
-11 -25 -16 -49 -12 -45 8 5 23 4 22 11 22 3 0 2 -5 -1 -11z m685 -7 c0 -4
-13 -9 -30 -10 -16 -1 -30 2 -30 7 0 5 9 7 20 4 12 -3 20 0 20 6 0 7 5 9 10 6
6 -3 10 -9 10 -13z m2540 -26 c-14 -14 -31 11 -22 32 4 12 7 12 19 -4 9 -12
10 -21 3 -28z m-3126 26 c2 -4 0 -14 -6 -22 -8 -12 -9 -12 -5 2 3 9 1 19 -6
22 -9 3 -9 5 0 5 6 1 14 -3 17 -7z m116 2 c0 -8 -19 -13 -24 -6 -3 5 1 9 9 9
8 0 15 -2 15 -3z m90 -4 c0 -5 -2 -10 -4 -10 -3 0 -8 5 -11 10 -3 6 -1 10 4
10 6 0 11 -4 11 -10z m2753 -5 c-4 -14 -30 -14 -30 0 0 7 7 12 16 10 9 -1 15
-6 14 -10z m447 -11 c0 -7 8 -18 18 -23 9 -6 12 -11 5 -11 -6 0 -15 5 -18 10
-4 6 -11 8 -16 5 -5 -4 -6 2 -2 12 6 15 4 16 -8 6 -12 -10 -15 -8 -15 6 0 12
6 17 18 13 10 -2 18 -10 18 -18z m149 -22 c1 -8 -4 -10 -11 -6 -8 5 -9 2 -5
-10 4 -9 3 -15 -2 -12 -7 5 -8 57 -1 76 2 7 18 -33 19 -48z m-2689 23 c0 -8
-4 -15 -8 -15 -5 0 -9 7 -9 15 0 8 4 15 9 15 4 0 8 -7 8 -15z m-67 -20 c-7
-21 -12 -19 -10 4 0 11 5 18 9 15 4 -3 5 -11 1 -19z m2197 9 c0 -8 -4 -12 -10
-9 -5 3 -10 10 -10 16 0 5 5 9 10 9 6 0 10 -7 10 -16z m85 7 c3 -5 1 -12 -5
-16 -5 -3 -10 1 -10 9 0 18 6 21 15 7z m79 -7 c3 -8 2 -12 -4 -9 -6 3 -10 1
-10 -6 0 -7 -2 -10 -5 -7 -5 5 4 38 10 38 2 0 6 -7 9 -16z m-190 -13 c4 -5 -3
-7 -14 -4 -23 6 -26 13 -6 13 8 0 17 -4 20 -9z m396 -6 c0 -2 -9 -3 -19 -2
-11 0 -18 5 -15 9 4 6 34 0 34 -7z m130 5 c0 -6 -7 -13 -15 -16 -8 -4 -12 -11
-8 -18 4 -6 -1 -5 -10 3 -18 14 -22 22 -9 20 19 -3 33 2 27 11 -3 6 -1 10 4
10 6 0 11 -5 11 -10z m120 2 c0 -5 -7 -9 -15 -9 -8 0 -15 4 -15 9 0 4 7 8 15
8 8 0 15 -4 15 -8z m235 -2 c4 -6 11 -8 16 -5 5 4 9 1 9 -4 0 -6 -3 -11 -7
-12 -5 0 -17 -2 -29 -3 -16 -2 -20 2 -16 16 5 20 17 24 27 8z m-3158 -22 c-3
-8 -6 -5 -6 6 -1 11 2 17 5 13 3 -3 4 -12 1 -19z m148 12 c3 -6 -1 -7 -9 -4
-18 7 -21 14 -7 14 6 0 13 -4 16 -10z m2350 1 c3 -5 2 -12 -3 -15 -5 -3 -9 1
-9 9 0 17 3 19 12 6z m-229 -20 c2 -8 1 -8 -3 0 -4 8 -7 8 -13 -1 -5 -9 -9 -8
-13 3 -4 10 0 14 11 13 9 -2 17 -8 18 -15z m835 2 c13 -16 12 -17 -3 -4 -17
13 -22 21 -14 21 2 0 10 -8 17 -17z m-2911 3 c0 -11 -19 -15 -25 -6 -3 5 1 10
9 10 9 0 16 -2 16 -4z m1394 -841 c-3 -178 -192 -335 -404 -335 -204 0 -389
145 -416 327 -12 79 -43 74 413 71 l408 -3 -1 -60z"/>
<path d="M1096 2465 c-11 -8 -16 -15 -10 -15 5 0 18 7 28 15 11 8 16 15 10 15
-5 0 -18 -7 -28 -15z"/>
<path d="M1195 2470 c-3 -5 -11 -7 -19 -4 -7 3 -13 -2 -13 -10 0 -8 4 -13 8
-10 4 2 10 -4 12 -13 4 -14 5 -13 6 5 0 12 6 22 11 22 6 0 9 -3 9 -7 -3 -18 2
-33 9 -33 5 0 9 6 9 13 0 6 2 18 4 26 4 15 -28 24 -36 11z"/>
<path d="M1440 2471 c0 -6 4 -13 10 -16 6 -3 7 1 4 9 -7 18 -14 21 -14 7z"/>
<path d="M3643 2464 c0 -8 6 -14 14 -14 7 0 13 4 13 9 0 5 -6 11 -13 14 -8 3
-14 -1 -14 -9z"/>
<path d="M4209 2472 c11 -8 11 -10 0 -14 -10 -3 -9 -6 3 -10 11 -5 15 -2 14
10 -2 9 -9 18 -17 20 -12 3 -12 2 0 -6z"/>
<path d="M4283 2473 c-18 -7 -16 -20 2 -20 8 0 15 6 15 14 0 7 -1 13 -2 12 -2
0 -9 -3 -15 -6z"/>
<path d="M4405 2470 c3 -5 8 -10 11 -10 2 0 4 5 4 10 0 6 -5 10 -11 10 -5 0
-7 -4 -4 -10z"/>
<path d="M965 2460 c-3 -6 1 -7 9 -4 18 7 21 14 7 14 -6 0 -13 -4 -16 -10z"/>
<path d="M1321 2456 c-10 -12 -8 -13 8 -9 12 3 18 9 15 14 -7 12 -10 11 -23
-5z"/>
<path d="M1602 2450 c0 -14 2 -19 5 -12 2 6 2 18 0 25 -3 6 -5 1 -5 -13z"/>
<path d="M3568 2458 c-7 -18 1 -38 15 -38 8 0 8 3 0 11 -6 6 -9 18 -6 25 3 8
3 14 0 14 -3 0 -7 -6 -9 -12z"/>
<path d="M3778 2463 c6 -2 10 -9 7 -14 -4 -5 1 -6 10 -2 13 5 14 7 3 14 -7 5
-17 8 -23 8 -5 0 -4 -3 3 -6z"/>
<path d="M3854 2462 c-6 -4 -14 -16 -18 -27 -4 -11 -4 -16 -1 -13 4 4 19 2 33
-3 17 -7 29 -6 36 1 8 9 7 11 -4 10 -30 -4 -50 0 -50 11 0 6 6 9 13 6 8 -3 14
1 14 9 0 16 -7 17 -23 6z"/>
<path d="M3696 2452 c-3 -5 1 -9 9 -9 8 0 12 4 9 9 -3 4 -7 8 -9 8 -2 0 -6 -4
-9 -8z"/>
<path d="M580 2439 c0 -5 -6 -7 -12 -3 -7 4 -9 3 -5 -1 13 -15 36 -14 30 1 -6
17 -13 18 -13 3z"/>
<path d="M3512 2430 c0 -14 2 -19 5 -12 2 6 2 18 0 25 -3 6 -5 1 -5 -13z"/>
<path d="M4240 2439 c0 -5 5 -7 10 -4 6 3 10 8 10 11 0 2 -4 4 -10 4 -5 0 -10
-5 -10 -11z"/>
<path d="M965 2422 c2 -9 4 -19 4 -21 1 -2 8 2 17 10 13 10 17 10 25 -2 5 -8
9 -18 9 -24 0 -5 -4 -4 -9 4 -5 8 -16 11 -30 6 -37 -11 -12 -26 32 -19 23 4
52 7 64 8 29 2 40 14 20 22 -8 3 -26 0 -39 -7 -22 -12 -22 -11 -8 6 8 10 10
16 3 12 -6 -4 -13 -3 -15 1 -1 5 -19 11 -39 15 -31 4 -36 3 -34 -11z"/>
<path d="M4320 2424 c0 -8 5 -12 10 -9 6 3 10 10 10 16 0 5 -4 9 -10 9 -5 0
-10 -7 -10 -16z"/>
<path d="M4360 2430 c-9 -6 -11 -10 -3 -10 7 0 10 -7 7 -15 -4 -9 0 -15 7 -15
12 0 12 -2 0 -9 -7 -5 -10 -14 -6 -21 5 -8 11 -8 23 3 10 8 24 17 32 20 12 4
11 6 -2 6 -10 1 -18 5 -18 11 0 5 7 7 15 4 9 -4 15 0 15 9 0 8 -7 18 -16 21
-8 3 -12 2 -9 -4 3 -5 -3 -14 -14 -20 -17 -9 -19 -7 -16 10 4 23 5 23 -15 10z"/>
<path d="M1380 2419 c0 -5 5 -7 10 -4 6 3 10 8 10 11 0 2 -4 4 -10 4 -5 0 -10
-5 -10 -11z"/>
<path d="M3630 2423 c0 -5 12 -9 27 -10 19 -1 22 1 12 8 -17 11 -39 12 -39 2z"/>
<path d="M1591 2404 c0 -11 3 -14 6 -6 3 7 2 16 -1 19 -3 4 -6 -2 -5 -13z"/>
<path d="M4332 2403 c-6 -2 -10 -9 -6 -14 8 -14 21 -11 21 6 0 8 -1 15 -1 14
-1 0 -7 -3 -14 -6z"/>
<path d="M3885 2360 c-3 -5 -1 -10 4 -10 6 0 11 5 11 10 0 6 -2 10 -4 10 -3 0
-8 -4 -11 -10z"/>
</g>
</svg>
